<svg width="36" height="34" viewBox="0 0 36 34" fill="none" xmlns="http://www.w3.org/2000/svg">
<g id="atoms/icons/colored/sharp/github">
<path id="bg" d="M35.9999 0H0.307617V33.4972H35.9999V0Z" fill="#231E1B"/>
<path id="githab" fill-rule="evenodd" clip-rule="evenodd" d="M18.1265 8.57532C13.2147 8.57532 9.23071 12.3143 9.23071 16.924C9.23071 20.6118 11.7958 23.7361 15.2886 24.863C15.7252 24.9142 15.8889 24.6581 15.8889 24.4532C15.8889 24.2483 15.8889 23.7361 15.8889 23.0191C13.433 23.5313 12.8873 21.8923 12.8873 21.8923C12.5052 20.9191 11.9049 20.663 11.9049 20.663C11.0863 20.1508 11.9595 20.1508 11.9595 20.1508C12.8327 20.202 13.3239 21.0215 13.3239 21.0215C14.1425 22.302 15.3977 21.9435 15.8889 21.7386C15.9435 21.1752 16.2164 20.8167 16.4347 20.6118C14.47 20.4069 12.3961 19.6898 12.3961 16.463C12.3961 15.5411 12.7235 14.824 13.3239 14.2094C13.2693 14.0558 12.9418 13.185 13.433 12.0582C13.433 12.0582 14.1971 11.8533 15.8889 12.9289C16.5984 12.7241 17.3624 12.6728 18.1265 12.6728C18.8906 12.6728 19.6546 12.7753 20.3641 12.9289C22.0559 11.8533 22.82 12.0582 22.82 12.0582C23.3112 13.185 22.9837 14.0558 22.9291 14.2606C23.4749 14.824 23.8569 15.5923 23.8569 16.5143C23.8569 19.7411 21.7831 20.4069 19.8183 20.6118C20.1458 20.8679 20.4187 21.3801 20.4187 22.1484C20.4187 23.2752 20.4187 24.1459 20.4187 24.4532C20.4187 24.6581 20.5824 24.9142 21.019 24.863C24.5664 23.7361 27.0769 20.6118 27.0769 16.924C27.0223 12.3143 23.0383 8.57532 18.1265 8.57532Z" fill="white"/>
</g>
</svg>
