<svg width="36" height="34" viewBox="0 0 36 34" fill="none" xmlns="http://www.w3.org/2000/svg">
<g id="atoms/icons/colored/sharp/linkedin">
<path id="bg" d="M35.6923 0H0V33.4972H35.6923V0Z" fill="#2867B2"/>
<path id="linkedin" d="M12.9385 25.1229H9.14617V13.9223H12.9385V25.1229ZM11.0423 12.3521C9.81541 12.3521 8.9231 11.5147 8.9231 10.3632C8.9231 9.21176 9.92694 8.37433 11.0423 8.37433C12.2693 8.37433 13.1616 9.21176 13.1616 10.3632C13.1616 11.5147 12.2693 12.3521 11.0423 12.3521ZM26.7692 25.1229H22.9769V19.0516C22.9769 17.272 22.1962 16.7486 21.0808 16.7486C19.9654 16.7486 18.85 17.5861 18.85 19.1562V25.1229H15.0577V13.9223H18.6269V15.4925C18.9616 14.7597 20.3 13.6083 22.1962 13.6083C24.3154 13.6083 26.5462 14.7597 26.5462 18.2141V25.1229H26.7692Z" fill="white"/>
</g>
</svg>
