<svg width="37" height="34" viewBox="0 0 37 34" fill="none" xmlns="http://www.w3.org/2000/svg">
<g id="atoms/icons/colored/sharp/whatsapp">
<path id="bg" d="M36.3461 0H0.653809V33.4972H36.3461V0Z" fill="#25D366"/>
<path id="whatsapp" fill-rule="evenodd" clip-rule="evenodd" d="M24.7461 10.7819C23.0731 9.21176 20.8423 8.37433 18.5 8.37433C13.5923 8.37433 9.5769 12.1428 9.5769 16.7486C9.5769 18.2141 10.0231 19.6796 10.8038 20.9358L9.5769 25.1229L14.2615 23.9715C15.6 24.5995 17.05 25.0183 18.5 25.0183C23.4077 25.0183 27.4231 21.2498 27.4231 16.644C27.4231 14.4457 26.4192 12.3521 24.7461 10.7819ZM18.5 23.6574C17.1615 23.6574 15.8231 23.3434 14.7077 22.7153L14.4846 22.6107L11.6961 23.3434L12.4769 20.8311L12.2538 20.5171C11.4731 19.3656 11.1384 18.1095 11.1384 16.8533C11.1384 13.0849 14.4846 9.94451 18.5 9.94451C20.5077 9.94451 22.2923 10.6773 23.7423 11.9334C25.1923 13.2942 25.8615 14.9691 25.8615 16.8533C25.8615 20.5171 22.6269 23.6574 18.5 23.6574ZM22.5154 18.4235C22.2923 18.3188 21.1769 17.7954 20.9538 17.7954C20.7308 17.6907 20.6192 17.6907 20.5077 17.9001C20.3961 18.1095 19.95 18.5282 19.8385 18.7375C19.7269 18.8422 19.6154 18.8422 19.3923 18.8422C19.1692 18.7375 18.5 18.5282 17.6077 17.7954C16.9385 17.272 16.4923 16.5393 16.3808 16.3299C16.2692 16.1206 16.3808 16.0159 16.4923 15.9112C16.6038 15.8065 16.7154 15.7018 16.8269 15.5972C16.9384 15.4925 16.9385 15.3878 17.05 15.2831C17.1615 15.1785 17.05 15.0738 17.05 14.9691C17.05 14.8644 16.6038 13.8176 16.3808 13.3989C16.2692 13.0849 16.0461 13.0849 15.9346 13.0849C15.8231 13.0849 15.7115 13.0849 15.4884 13.0849C15.3769 13.0849 15.1538 13.0849 14.9307 13.2942C14.7077 13.5036 14.15 14.027 14.15 15.0738C14.15 16.1206 14.9307 17.0627 15.0423 17.272C15.1538 17.3767 16.6038 19.575 18.8346 20.4124C20.7307 21.1451 21.0654 20.9358 21.5115 20.9358C21.9577 20.9358 22.85 20.4124 22.9615 19.9937C23.1846 19.4703 23.1846 19.0516 23.0731 19.0516C22.9615 18.5282 22.7384 18.5282 22.5154 18.4235Z" fill="white"/>
</g>
</svg>
